<?xml version="1.0" encoding="UTF-8"?>
<svg xmlns="http://www.w3.org/2000/svg" width="130" height="70" viewBox="0 0 130 70" fill="none">
  <g clip-path="url(#clip0_4207_4490)">
    <mask id="mask0_4207_4490" style="mask-type:luminance" maskUnits="userSpaceOnUse" x="0" y="0" width="130" height="70">
      <path d="M130 0H0V70H130V0Z" fill="white"></path>
    </mask>
    <g mask="url(#mask0_4207_4490)">
      <path d="M44.7657 46.2047C44.9081 45.7625 45.5286 45.7625 45.671 46.2047L46.7145 49.4431C46.7782 49.6409 46.9609 49.7748 47.1672 49.7748H50.5438C51.0049 49.7748 51.1966 50.3698 50.8235 50.6431L48.0918 52.6446C47.9249 52.7668 47.8552 52.9835 47.9189 53.1813L48.9623 56.4197C49.1048 56.8619 48.6028 57.2297 48.2299 56.9563L45.4981 54.9549C45.3313 54.8327 45.1054 54.8327 44.9386 54.9549L42.2068 56.9563C41.8339 57.2297 41.3319 56.8619 41.4744 56.4197L42.5178 53.1813C42.5815 52.9835 42.5118 52.7668 42.3449 52.6446L39.6132 50.6431C39.2401 50.3698 39.4318 49.7748 39.8929 49.7748H43.2695C43.4758 49.7748 43.6585 49.6409 43.7222 49.4431L44.7657 46.2047Z" fill="#FFBB31"></path>
      <path d="M59.045 46.2047C59.1874 45.7625 59.8079 45.7625 59.9503 46.2047L60.9938 49.4431C61.0575 49.6409 61.2402 49.7748 61.4464 49.7748H64.8231C65.2842 49.7748 65.4759 50.3698 65.1028 50.6431L62.371 52.6446C62.2042 52.7668 62.1345 52.9835 62.1981 53.1813L63.2416 56.4197C63.3841 56.8619 62.8821 57.2297 62.5092 56.9563L59.7774 54.9549C59.6106 54.8327 59.3847 54.8327 59.2179 54.9549L56.4861 56.9563C56.1132 57.2297 55.6112 56.8619 55.7537 56.4197L56.7971 53.1813C56.8608 52.9835 56.7911 52.7668 56.6242 52.6446L53.8924 50.6431C53.5194 50.3698 53.7111 49.7748 54.1722 49.7748H57.5488C57.7551 49.7748 57.9378 49.6409 58.0015 49.4431L59.045 46.2047Z" fill="#FFBB31"></path>
      <path d="M73.3253 46.2047C73.4677 45.7625 74.0881 45.7625 74.2306 46.2047L75.2741 49.4431C75.3377 49.6409 75.5205 49.7748 75.7267 49.7748H79.1034C79.5645 49.7748 79.7562 50.3698 79.3831 50.6431L76.6513 52.6446C76.4845 52.7668 76.4148 52.9835 76.4784 53.1813L77.5219 56.4197C77.6643 56.8619 77.1624 57.2297 76.7895 56.9563L74.0577 54.9549C73.8908 54.8327 73.665 54.8327 73.4982 54.9549L70.7664 56.9563C70.3934 57.2297 69.8915 56.8619 70.0339 56.4197L71.0774 53.1813C71.1411 52.9835 71.0714 52.7668 70.9045 52.6446L68.1727 50.6431C67.7997 50.3698 67.9914 49.7748 68.4525 49.7748H71.8291C72.0353 49.7748 72.2181 49.6409 72.2818 49.4431L73.3253 46.2047Z" fill="#FFBB31"></path>
      <path d="M87.6046 46.2047C87.747 45.7625 88.3674 45.7625 88.5099 46.2047L89.5534 49.4431C89.617 49.6409 89.7998 49.7748 90.006 49.7748H93.3827C93.8438 49.7748 94.0355 50.3698 93.6624 50.6431L90.9306 52.6446C90.7638 52.7668 90.6941 52.9835 90.7577 53.1813L91.8012 56.4197C91.9436 56.8619 91.4417 57.2297 91.0688 56.9563L88.337 54.9549C88.1701 54.8327 87.9443 54.8327 87.7775 54.9549L85.0457 56.9563C84.6727 57.2297 84.1708 56.8619 84.3132 56.4197L85.3567 53.1813C85.4204 52.9835 85.3506 52.7668 85.1838 52.6446L82.452 50.6431C82.079 50.3698 82.2707 49.7748 82.7318 49.7748H86.1084C86.3146 49.7748 86.4974 49.6409 86.5611 49.4431L87.6046 46.2047Z" fill="#FFBB31"></path>
      <path d="M102.337 44.7998V49.7749V51.3998V52.8496V53.7998V54.75L99.3259 56.9564C98.9529 57.2298 98.4511 56.862 98.5935 56.4198L99.637 53.1813C99.7007 52.9836 99.6308 52.7668 99.464 52.6447L96.7323 50.6432C96.3592 50.3698 96.5509 49.7749 97.0121 49.7749H100.389C100.595 49.7749 100.778 49.641 100.841 49.4432L102.337 44.7998Z" fill="#FFBB31"></path>
      <path d="M108.25 45.2144V58.1314H107.23V45.2144H108.25ZM112.998 54.066V53.1072L116.364 47.7455H117.113V49.157H116.638L114.23 52.9998V53.0612H118.843V54.066H112.998ZM116.691 55.6001V53.7746L116.698 53.3373V47.7455H117.813V55.6001H116.691ZM120.64 55.673C120.433 55.673 120.253 55.5988 120.104 55.4506C119.954 55.2996 119.88 55.1182 119.88 54.9059C119.88 54.6963 119.954 54.5174 120.104 54.369C120.253 54.2182 120.433 54.1427 120.64 54.1427C120.848 54.1427 121.027 54.2182 121.177 54.369C121.327 54.5174 121.401 54.6963 121.401 54.9059C121.401 55.0466 121.366 55.1757 121.294 55.2933C121.227 55.4084 121.135 55.5004 121.021 55.5694C120.906 55.6385 120.78 55.673 120.64 55.673ZM125.346 55.7075C124.999 55.7024 124.656 55.6385 124.319 55.5158C123.984 55.393 123.68 55.1885 123.407 54.9021C123.133 54.6158 122.913 54.2309 122.749 53.7477C122.586 53.2644 122.505 52.6611 122.505 51.9375C122.505 51.2523 122.572 50.6438 122.707 50.1119C122.844 49.5801 123.04 49.1314 123.296 48.7658C123.552 48.3976 123.861 48.1176 124.224 47.9259C124.587 47.7341 124.994 47.6382 125.445 47.6382C125.909 47.6382 126.321 47.7303 126.68 47.9144C127.041 48.0984 127.332 48.3528 127.556 48.6776C127.781 49.0023 127.925 49.3718 127.986 49.7859H126.825C126.747 49.4586 126.591 49.1914 126.358 48.9844C126.124 48.7773 125.82 48.6737 125.445 48.6737C124.874 48.6737 124.429 48.9243 124.11 49.4254C123.793 49.9265 123.633 50.6232 123.63 51.5156H123.687C123.822 51.2932 123.987 51.104 124.182 50.948C124.38 50.7894 124.6 50.668 124.844 50.5836C125.089 50.4968 125.349 50.4532 125.62 50.4532C126.071 50.4532 126.479 50.5644 126.844 50.7869C127.212 51.0068 127.505 51.3111 127.723 51.6996C127.94 52.0883 128.05 52.5332 128.05 53.0344C128.05 53.5355 127.937 53.9894 127.712 54.3958C127.488 54.8024 127.174 55.1246 126.768 55.3623C126.362 55.5976 125.889 55.7127 125.346 55.7075ZM125.341 54.7103C125.641 54.7103 125.909 54.6362 126.145 54.488C126.38 54.3396 126.567 54.1402 126.704 53.8896C126.841 53.6391 126.909 53.3591 126.909 53.0496C126.909 52.748 126.842 52.4732 126.708 52.2251C126.575 51.9771 126.393 51.7803 126.16 51.6345C125.929 51.4888 125.665 51.4158 125.369 51.4158C125.143 51.4158 124.933 51.4594 124.742 51.5463C124.551 51.6332 124.384 51.7534 124.24 51.9068C124.094 52.0602 123.98 52.2366 123.897 52.4361C123.816 52.6329 123.775 52.8413 123.775 53.0612C123.775 53.3553 123.842 53.6276 123.977 53.8781C124.113 54.1287 124.3 54.3306 124.536 54.4841C124.774 54.635 125.043 54.7103 125.341 54.7103Z" fill="#1E1E1F"></path>
      <path d="M0 24.2849H11.7806H18.9347V17.1353L0 24.2849Z" fill="#FF9D28"></path>
      <path d="M18.9326 17.1347V42.4067L27.8858 13.7651L18.9326 17.1347Z" fill="#68C5ED"></path>
      <path d="M18.9343 24.2847H11.7803L18.9343 42.3855V24.2847Z" fill="#044D80"></path>
      <path d="M0 24.2847L13.6227 28.9287L11.7806 24.2847H0Z" fill="#E54747"></path>
      <path d="M43.3962 35.7333C43.2891 35.8413 43.1178 35.9709 42.8821 36.1221C42.6465 36.2733 42.3252 36.4461 41.9397 36.5973C41.5541 36.7485 41.0829 36.8997 40.5046 37.0077C39.9477 37.1157 39.3052 37.1805 38.577 37.1805C37.1847 37.1805 35.9638 36.9429 34.9357 36.5109C33.9076 36.0573 33.0722 35.4309 32.4082 34.6101C31.7442 33.7893 31.2516 32.8389 30.9517 31.7373C30.6304 30.6357 30.4805 29.4045 30.4805 28.0869C30.4805 26.7693 30.6518 25.5381 30.9945 24.4149C31.3372 23.2917 31.8299 22.3197 32.5153 21.4989C33.1793 20.6781 34.0361 20.0301 35.0428 19.5765C36.0495 19.1229 37.249 18.8853 38.6198 18.8853C39.2837 18.8853 39.9049 18.95 40.4403 19.058C40.9758 19.1876 41.4685 19.3172 41.8754 19.49C42.2824 19.6628 42.6251 19.8357 42.8821 20.0085C43.1606 20.1813 43.3534 20.354 43.4819 20.462C43.6318 20.5916 43.7817 20.7645 43.8888 20.9589C43.9959 21.1533 44.0602 21.3692 44.0602 21.5852C44.0602 21.9308 43.9317 22.2765 43.6747 22.6221C43.4176 22.9677 43.1392 23.2917 42.8179 23.5941C42.6037 23.3781 42.3681 23.1621 42.111 22.9461C41.854 22.7301 41.5541 22.5357 41.2328 22.3629C40.9116 22.1901 40.5474 22.0605 40.1405 21.9525C39.7336 21.8445 39.2837 21.7796 38.7696 21.7796C37.8916 21.7796 37.1419 21.9524 36.5421 22.3197C35.9424 22.6869 35.4712 23.1405 35.107 23.7237C34.7429 24.3069 34.4859 24.9549 34.3359 25.6893C34.186 26.4237 34.1003 27.1797 34.1003 27.9573C34.1003 28.7781 34.186 29.5557 34.3359 30.3117C34.4859 31.0677 34.7643 31.7157 35.1499 32.2989C35.5354 32.8821 36.0281 33.3357 36.6492 33.6813C37.2704 34.0269 38.0201 34.1997 38.941 34.1997C39.4336 34.1997 39.862 34.1349 40.269 34.0269C40.6759 33.8973 41.0401 33.7461 41.3399 33.5733C41.6612 33.4005 41.9183 33.2061 42.1539 33.0333C42.3895 32.8389 42.5823 32.6661 42.7322 32.5365C42.8393 32.6661 42.9464 32.8173 43.0963 32.9901C43.2463 33.1629 43.3748 33.3573 43.4819 33.5301C43.6104 33.7245 43.6961 33.9189 43.8032 34.1133C43.8888 34.3077 43.9317 34.4805 43.9317 34.6317C43.9317 34.8693 43.8888 35.0421 43.8032 35.2149C43.7175 35.3661 43.5676 35.5389 43.3962 35.7333ZM56.7619 33.7245C56.7619 35.1069 56.9546 36.1221 57.3616 36.7485C57.0403 36.8781 56.7619 36.9645 56.4834 37.0077C56.205 37.0509 55.9265 37.0941 55.6266 37.0941C55.0055 37.0941 54.5342 36.9645 54.213 36.7269C53.8917 36.4893 53.6775 36.1221 53.5918 35.6685C53.2063 36.0789 52.7136 36.4245 52.071 36.7053C51.4499 36.9861 50.6788 37.1157 49.7792 37.1157C49.3079 37.1157 48.8367 37.0509 48.3655 36.9213C47.8943 36.7917 47.4659 36.5757 47.0803 36.2733C46.6948 35.9709 46.3949 35.5821 46.1379 35.0853C45.9023 34.5885 45.7737 33.9837 45.7737 33.2709C45.7737 32.3853 45.9879 31.6509 46.4163 31.0893C46.8447 30.5277 47.3802 30.0957 48.0228 29.7717C48.6654 29.4477 49.3722 29.2317 50.1004 29.1021C50.8501 28.9725 51.5355 28.9077 52.1567 28.8645C52.3709 28.8429 52.5637 28.8429 52.7779 28.8429H53.3348V28.3677C53.3348 27.6981 53.1634 27.2229 52.7993 26.9205C52.4352 26.6397 51.8568 26.4885 51.0643 26.4885C50.3146 26.4885 49.6506 26.6181 49.0723 26.8557C48.494 27.0933 47.9157 27.3741 47.3588 27.6981C47.1232 27.3957 46.909 27.0717 46.7805 26.7045C46.6305 26.3373 46.5663 26.0781 46.5663 25.9053C46.5663 25.6677 46.6948 25.4301 46.9732 25.1925C47.2517 24.9549 47.6158 24.7605 48.087 24.5661C48.5583 24.3717 49.0937 24.2421 49.7149 24.1125C50.3146 24.0045 50.9572 23.9397 51.6426 23.9397C52.5851 23.9397 53.3776 24.0261 54.0202 24.2205C54.6628 24.4149 55.1982 24.7173 55.6052 25.1061C56.0122 25.5165 56.3121 26.0133 56.4834 26.6181C56.6548 27.2229 56.7404 27.9357 56.7404 28.7349L56.7619 33.7245ZM53.4204 30.6789H53.0563C52.9278 30.6789 52.8207 30.6789 52.6922 30.7005C52.2638 30.7437 51.8354 30.7869 51.407 30.8517C50.9786 30.9165 50.5931 31.0461 50.2718 31.2189C49.9505 31.3917 49.6721 31.6293 49.4579 31.9101C49.2437 32.1909 49.1366 32.5581 49.1366 32.9901C49.1366 33.4869 49.2651 33.8973 49.5435 34.2429C49.822 34.5885 50.2932 34.7613 50.9572 34.7613C51.2785 34.7613 51.5998 34.7181 51.8997 34.6317C52.1995 34.5453 52.4566 34.4373 52.6922 34.2861C52.9278 34.1349 53.0992 33.9837 53.2277 33.8325C53.3562 33.6597 53.4204 33.5085 53.4204 33.3789V30.6789ZM63.2519 25.4949C63.5304 25.1709 63.9587 24.8253 64.5585 24.4797C65.1582 24.1341 65.8865 23.9613 66.7861 23.9613C67.4287 23.9613 68.0498 24.0693 68.6282 24.2853C69.2065 24.5013 69.7205 24.8685 70.1704 25.3437C70.6202 25.8405 70.9843 26.4885 71.2413 27.2877C71.5198 28.0869 71.6483 29.0805 71.6483 30.2685C71.6483 31.6293 71.4984 32.7741 71.1771 33.6597C70.8558 34.5453 70.4702 35.2581 69.9776 35.7549C69.4849 36.2733 68.928 36.6405 68.3283 36.8565C67.7285 37.0725 67.1074 37.1805 66.5076 37.1805C66.015 37.1805 65.5652 37.1157 65.2011 37.0077C64.8369 36.8997 64.5156 36.7701 64.2586 36.6189C64.0016 36.4893 63.8088 36.3381 63.6589 36.2085C63.5304 36.0789 63.4233 35.9709 63.4018 35.9277V42.4077H59.8462V24.3501C59.9319 24.3285 60.039 24.3069 60.1675 24.3069C60.2746 24.2853 60.4031 24.2853 60.5317 24.2637C60.6816 24.2637 60.8315 24.2421 61.0243 24.2421C61.6026 24.2421 62.0953 24.3285 62.5022 24.5229C62.8878 24.7173 63.1448 25.0413 63.2519 25.4949ZM67.9642 30.3549C67.9642 29.8365 67.9213 29.3397 67.8356 28.8861C67.75 28.4325 67.6 28.0437 67.4073 27.6981C67.2145 27.3741 66.936 27.1149 66.5933 26.9205C66.2506 26.7261 65.8437 26.6397 65.351 26.6397C64.6227 26.6397 64.1087 26.7909 63.8302 27.0501C63.5518 27.3309 63.4018 27.6333 63.4018 27.9789V33.5733C63.5304 33.7245 63.7874 33.8757 64.1515 34.0701C64.5156 34.2645 64.9226 34.3509 65.3938 34.3509C66.272 34.3509 66.9146 34.0053 67.343 33.2925C67.75 32.6013 67.9642 31.6293 67.9642 30.3549ZM74.39 34.8909C74.2614 34.5453 74.1972 34.1781 74.1543 33.7893C74.1115 33.4005 74.1115 33.0117 74.1115 32.6229V20.4189C74.24 20.3973 74.3685 20.3756 74.4971 20.3756C74.6256 20.354 74.7541 20.3541 74.8826 20.3325C75.0111 20.3325 75.1611 20.3109 75.2896 20.3109C75.568 20.3109 75.8465 20.3325 76.1249 20.3973C76.4034 20.4405 76.6604 20.5485 76.8746 20.7213C77.1102 20.8725 77.2816 21.0884 77.4315 21.3692C77.56 21.65 77.6457 21.9956 77.6457 22.4277V24.3069H81.3084V26.9637H77.6671V32.5797C77.6671 33.8109 78.1598 34.4157 79.145 34.4157C79.3807 34.4157 79.6163 34.3725 79.8305 34.3077C80.0447 34.2213 80.2374 34.1349 80.4088 34.0485C80.5801 33.9621 80.7301 33.8541 80.8586 33.7461C80.9871 33.6381 81.0728 33.5517 81.137 33.5085C81.3941 33.8973 81.6083 34.2213 81.7368 34.5021C81.8653 34.7829 81.951 35.0421 81.951 35.3013C81.951 35.5389 81.8653 35.7549 81.6725 35.9709C81.4798 36.1869 81.2227 36.4029 80.9014 36.5757C80.5801 36.7701 80.1732 36.9213 79.702 37.0293C79.2307 37.1373 78.7167 37.2021 78.1598 37.2021C77.0888 37.2021 76.232 36.9861 75.6323 36.5757C75.0754 36.1221 74.647 35.5821 74.39 34.8909ZM90.3045 34.5453C90.7329 34.5453 91.1184 34.5021 91.4612 34.3941C91.7824 34.3077 92.0823 34.1781 92.3608 34.0485C92.6178 33.9189 92.8534 33.7461 93.0462 33.5949C93.239 33.4221 93.4103 33.2709 93.5602 33.1413C93.7744 33.4005 93.9886 33.7461 94.2242 34.1565C94.4599 34.5669 94.567 34.9125 94.567 35.1717C94.567 35.5605 94.3528 35.9061 93.9244 36.2301C93.5602 36.5109 93.0462 36.7485 92.3608 36.9645C91.6968 37.1589 90.9043 37.2669 90.0046 37.2669C89.1907 37.2669 88.3768 37.1589 87.5843 36.9429C86.7917 36.7269 86.0849 36.3597 85.4637 35.8413C84.8426 35.3229 84.3499 34.6101 83.9644 33.7245C83.5789 32.8389 83.3861 31.7157 83.3861 30.3765C83.3861 29.2749 83.5574 28.3245 83.9001 27.5253C84.2428 26.7261 84.6926 26.0565 85.2496 25.5381C85.8065 25.0197 86.449 24.6309 87.1773 24.3717C87.8841 24.1341 88.6124 24.0045 89.3621 24.0045C90.3259 24.0045 91.1613 24.1557 91.8467 24.4581C92.5321 24.7605 93.0676 25.1709 93.496 25.6893C93.9244 26.2077 94.2242 26.7909 94.417 27.4605C94.6098 28.1301 94.6955 28.8213 94.6955 29.5557V29.9229C94.6955 30.0741 94.6955 30.2037 94.6741 30.3765C94.6741 30.5277 94.6526 30.6789 94.6526 30.8301C94.6526 30.9813 94.6312 31.0893 94.6098 31.1757H86.9203C86.9845 32.1477 87.2844 32.9469 87.8199 33.5949C88.3339 34.2213 89.1693 34.5453 90.3045 34.5453ZM91.504 29.2101C91.504 28.3677 91.3326 27.6765 91.0114 27.1581C90.6901 26.6397 90.1117 26.3589 89.2764 26.3589C88.5481 26.3589 87.9912 26.6181 87.5628 27.1149C87.1345 27.6117 86.9203 28.3029 86.9203 29.2101H91.504ZM100.886 25.5597C100.993 25.4085 101.121 25.2357 101.293 25.0413C101.464 24.8469 101.678 24.6741 101.935 24.5229C102.192 24.3717 102.471 24.2421 102.771 24.1341C103.07 24.0261 103.392 23.9829 103.756 23.9829C103.97 23.9829 104.184 24.0045 104.42 24.0261C104.655 24.0693 104.87 24.1341 105.062 24.2205C105.255 24.3069 105.427 24.4365 105.555 24.6093C105.684 24.7821 105.748 24.9765 105.748 25.2141C105.748 25.6029 105.662 26.0349 105.469 26.5317C105.277 27.0285 105.084 27.4605 104.891 27.8061C104.591 27.5685 104.291 27.3741 104.013 27.2445C103.713 27.1149 103.37 27.0501 102.963 27.0501C102.428 27.0501 101.978 27.2013 101.614 27.5253C101.25 27.8493 101.057 28.2165 101.057 28.6701V37.1805H97.5014V24.3285C97.5871 24.3069 97.6942 24.2853 97.8227 24.2853C97.9298 24.2637 98.0583 24.2637 98.1868 24.2421C98.3153 24.2421 98.4867 24.2205 98.6795 24.2205C99.2364 24.2205 99.729 24.3285 100.136 24.5445C100.522 24.7821 100.779 25.1061 100.886 25.5597ZM110.974 25.5597C111.081 25.4085 111.21 25.2357 111.381 25.0413C111.552 24.8469 111.767 24.6741 112.024 24.5229C112.281 24.3717 112.559 24.2421 112.859 24.1341C113.159 24.0261 113.48 23.9829 113.844 23.9829C114.059 23.9829 114.273 24.0045 114.508 24.0261C114.744 24.0693 114.958 24.1341 115.151 24.2205C115.344 24.3069 115.515 24.4365 115.644 24.6093C115.772 24.7821 115.836 24.9765 115.836 25.2141C115.836 25.6029 115.751 26.0349 115.558 26.5317C115.365 27.0285 115.172 27.4605 114.98 27.8061C114.68 27.5685 114.38 27.3741 114.101 27.2445C113.802 27.1149 113.459 27.0501 113.052 27.0501C112.516 27.0501 112.067 27.2013 111.702 27.5253C111.338 27.8493 111.146 28.2165 111.146 28.6701V37.1805H107.59V24.3285C107.676 24.3069 107.783 24.2853 107.911 24.2853C108.018 24.2637 108.147 24.2637 108.275 24.2421C108.404 24.2421 108.575 24.2205 108.768 24.2205C109.325 24.2205 109.818 24.3285 110.224 24.5445C110.61 24.7821 110.867 25.1061 110.974 25.5597ZM127.917 33.7245C127.917 35.1069 128.109 36.1221 128.516 36.7485C128.195 36.8781 127.917 36.9645 127.638 37.0077C127.36 37.0509 127.081 37.0941 126.781 37.0941C126.16 37.0941 125.689 36.9645 125.368 36.7269C125.046 36.4893 124.832 36.1221 124.747 35.6685C124.361 36.0789 123.868 36.4245 123.226 36.7053C122.605 36.9861 121.834 37.1157 120.934 37.1157C120.463 37.1157 119.991 37.0509 119.52 36.9213C119.049 36.7917 118.621 36.5757 118.235 36.2733C117.85 35.9709 117.55 35.5821 117.293 35.0853C117.057 34.5885 116.929 33.9837 116.929 33.2709C116.929 32.3853 117.143 31.6509 117.571 31.0893C118 30.5277 118.535 30.0957 119.178 29.7717C119.82 29.4477 120.527 29.2317 121.255 29.1021C122.005 28.9725 122.69 28.9077 123.311 28.8645C123.526 28.8429 123.718 28.8429 123.933 28.8429H124.49V28.3677C124.49 27.6981 124.318 27.2229 123.954 26.9205C123.59 26.6397 123.012 26.4885 122.219 26.4885C121.469 26.4885 120.805 26.6181 120.227 26.8557C119.649 27.0933 119.07 27.3741 118.514 27.6981C118.278 27.3957 118.064 27.0717 117.935 26.7045C117.785 26.3373 117.721 26.0781 117.721 25.9053C117.721 25.6677 117.85 25.4301 118.128 25.1925C118.407 24.9549 118.771 24.7605 119.242 24.5661C119.713 24.3717 120.248 24.2421 120.87 24.1125C121.469 24.0045 122.112 23.9397 122.797 23.9397C123.74 23.9397 124.532 24.0261 125.175 24.2205C125.818 24.4149 126.353 24.7173 126.76 25.1061C127.167 25.5165 127.467 26.0133 127.638 26.6181C127.81 27.2229 127.895 27.9357 127.895 28.7349L127.917 33.7245ZM124.575 30.6789H124.211C124.083 30.6789 123.975 30.6789 123.847 30.7005C123.419 30.7437 122.99 30.7869 122.562 30.8517C122.133 30.9165 121.748 31.0461 121.427 31.2189C121.105 31.3917 120.827 31.6293 120.613 31.9101C120.398 32.1909 120.291 32.5581 120.291 32.9901C120.291 33.4869 120.42 33.8973 120.698 34.2429C120.977 34.5885 121.448 34.7613 122.112 34.7613C122.433 34.7613 122.755 34.7181 123.054 34.6317C123.354 34.5453 123.611 34.4373 123.847 34.2861C124.083 34.1349 124.254 33.9837 124.382 33.8325C124.511 33.6597 124.575 33.5085 124.575 33.3789V30.6789Z" fill="#044D80"></path>
    </g>
  </g>
  <defs>
    <clipPath id="clip0_4207_4490">
      <rect width="130" height="70" fill="white"></rect>
    </clipPath>
  </defs>
</svg>
