<?xml version="1.0" encoding="UTF-8"?>
<svg xmlns="http://www.w3.org/2000/svg" width="154" height="70" viewBox="0 0 154 70" fill="none">
  <path d="M22.0242 58.0526C12.2876 58.0246 3.81482 51.8355 1.05077 42.5798C-1.25492 34.8364 0.245162 27.7511 5.43992 21.562C8.63455 17.7533 12.7598 15.4289 17.5934 14.4347C20.3019 13.8746 23.0938 13.8606 25.8162 14.3647C26.1218 14.4207 26.1218 14.5047 26.0106 14.7568C24.6772 17.5573 23.3437 20.3718 22.0242 23.1863C21.9548 23.3683 21.7743 23.4803 21.5798 23.4523C15.8572 23.6063 10.9541 27.6671 9.71795 33.2961C8.38454 39.2892 11.5931 45.4783 17.274 47.6767C21.7743 49.413 25.9689 48.7269 29.7747 45.7444C29.9692 45.5904 30.0525 45.5623 30.1914 45.8144C31.6498 48.3908 33.1221 50.9673 34.6084 53.5298C34.7334 53.7538 34.6917 53.8518 34.4972 53.9918C31.6221 56.0362 28.3024 57.3524 24.8161 57.8286C23.8855 57.9686 22.9548 58.0386 22.0242 58.0526Z" fill="#EF492D"></path>
  <path d="M37.1496 51.6672C37.0246 51.5972 36.9968 51.4712 36.9412 51.3591C35.2744 48.4606 33.6216 45.5621 31.9687 42.6635C31.8576 42.4255 31.5937 42.2715 31.3298 42.3135C28.024 42.3275 24.7321 42.3135 21.4264 42.3135H21.0098C21.0098 42.1875 21.0514 42.0615 21.1348 41.9634C22.8154 39.0229 24.4822 36.0963 26.1628 33.1559C26.26 32.9598 26.4545 32.8338 26.6768 32.8618C30.052 32.8758 33.4271 32.8758 36.8023 32.8618C37.0107 32.8338 37.2191 32.9598 37.3163 33.1559C38.9969 36.1104 40.6915 39.0649 42.386 42.0194C42.4972 42.1735 42.511 42.3835 42.3999 42.5515C40.6915 45.5201 38.9969 48.4887 37.3024 51.4572C37.2746 51.5412 37.2468 51.6392 37.1496 51.6672Z" fill="#EF492D"></path>
  <path d="M30.0384 20.5117C29.4273 19.8955 28.8716 19.3214 28.2883 18.7473C28.1077 18.5653 28.2327 18.4393 28.316 18.2992C28.9828 17.123 30.0801 16.2549 31.3579 15.8628C32.9274 15.3447 34.6498 15.5127 36.0943 16.3389C38.7194 17.7672 38.4833 21.0998 36.9693 22.5981C36.3998 23.1581 35.7471 23.6342 35.0386 23.9982C34.3026 24.3903 33.5802 24.7544 32.858 25.1745C32.2607 25.5246 31.8024 25.9866 31.5802 26.6728C31.4968 26.9528 31.5385 27.0228 31.8441 27.0228C33.7747 27.0088 35.7054 27.0228 37.6361 27.0088C37.9277 27.0088 38.0389 27.0648 38.0249 27.3869C37.9972 28.0731 38.0111 28.7591 38.0249 29.4453C38.0249 29.6693 37.9694 29.7393 37.7472 29.7393C34.6359 29.7393 31.5385 29.7393 28.4272 29.7393C28.2743 29.7393 28.1494 29.7393 28.1494 29.5293C28.1494 27.3589 28.5522 25.3425 30.2328 23.7882C31.0384 23.0741 31.9413 22.472 32.8997 22.0239C33.4275 21.7579 33.9692 21.5058 34.4276 21.1278C34.8304 20.7917 35.1081 20.3856 35.1498 19.8395C35.1915 18.9854 34.5248 18.3553 33.5108 18.2852C32.0524 18.1872 31.0107 18.8453 30.2745 20.0636C30.205 20.2036 30.1356 20.3296 30.0384 20.5117Z" fill="#EF492D"></path>
  <path d="M60.3777 46.2047C60.5206 45.7625 61.1432 45.7625 61.2861 46.2047L62.3332 49.4431C62.3971 49.6409 62.5805 49.7748 62.7874 49.7748H66.1756C66.6383 49.7748 66.8306 50.3698 66.4563 50.6431L63.7152 52.6446C63.5478 52.7668 63.4778 52.9835 63.5417 53.1813L64.5887 56.4197C64.7316 56.8619 64.228 57.2297 63.8538 56.9563L61.1126 54.9549C60.9452 54.8327 60.7186 54.8327 60.5512 54.9549L57.8101 56.9563C57.4359 57.2297 56.9322 56.8619 57.0752 56.4197L58.1222 53.1813C58.1861 52.9835 58.1161 52.7668 57.9487 52.6446L55.2076 50.6431C54.8332 50.3698 55.0256 49.7748 55.4883 49.7748H58.8765C59.0834 49.7748 59.2668 49.6409 59.3307 49.4431L60.3777 46.2047Z" fill="#FFBB31"></path>
  <path d="M74.7059 46.2047C74.8488 45.7625 75.4713 45.7625 75.6143 46.2047L76.6613 49.4431C76.7252 49.6409 76.9086 49.7748 77.1155 49.7748H80.5037C80.9664 49.7748 81.1588 50.3698 80.7844 50.6431L78.0433 52.6446C77.8759 52.7668 77.8059 52.9835 77.8698 53.1813L78.9168 56.4197C79.0598 56.8619 78.5561 57.2297 78.1819 56.9563L75.4408 54.9549C75.2734 54.8327 75.0468 54.8327 74.8793 54.9549L72.1382 56.9563C71.764 57.2297 71.2604 56.8619 71.4033 56.4197L72.4503 53.1813C72.5142 52.9835 72.4442 52.7668 72.2768 52.6446L69.5357 50.6431C69.1614 50.3698 69.3537 49.7748 69.8164 49.7748H73.2046C73.4115 49.7748 73.5949 49.6409 73.6588 49.4431L74.7059 46.2047Z" fill="#FFBB31"></path>
  <path d="M89.034 46.2047C89.1769 45.7625 89.7995 45.7625 89.9424 46.2047L90.9894 49.4431C91.0533 49.6409 91.2367 49.7748 91.4437 49.7748H94.8318C95.2945 49.7748 95.4869 50.3698 95.1125 50.6431L92.3714 52.6446C92.204 52.7668 92.134 52.9835 92.1979 53.1813L93.245 56.4197C93.3879 56.8619 92.8842 57.2297 92.51 56.9563L89.7689 54.9549C89.6015 54.8327 89.3749 54.8327 89.2075 54.9549L86.4663 56.9563C86.0921 57.2297 85.5885 56.8619 85.7314 56.4197L86.7785 53.1813C86.8423 52.9835 86.7724 52.7668 86.605 52.6446L83.8638 50.6431C83.4895 50.3698 83.6819 49.7748 84.1445 49.7748H87.5327C87.7396 49.7748 87.9231 49.6409 87.9869 49.4431L89.034 46.2047Z" fill="#FFBB31"></path>
  <path d="M103.363 46.2047C103.506 45.7625 104.129 45.7625 104.272 46.2047L105.319 49.4431C105.382 49.6409 105.566 49.7748 105.773 49.7748H109.161C109.624 49.7748 109.816 50.3698 109.441 50.6431L106.701 52.6446C106.533 52.7668 106.463 52.9835 106.527 53.1813L107.574 56.4197C107.717 56.8619 107.213 57.2297 106.839 56.9563L104.098 54.9549C103.931 54.8327 103.704 54.8327 103.537 54.9549L100.795 56.9563C100.421 57.2297 99.9176 56.8619 100.061 56.4197L101.108 53.1813C101.171 52.9835 101.101 52.7668 100.934 52.6446L98.1929 50.6431C97.8186 50.3698 98.011 49.7748 98.4736 49.7748H101.862C102.069 49.7748 102.252 49.6409 102.316 49.4431L103.363 46.2047Z" fill="#FFBB31"></path>
  <path d="M117.692 46.2047C117.834 45.7625 118.457 45.7625 118.599 46.2047L119.646 49.4431C119.711 49.6409 119.893 49.7748 120.101 49.7748H123.489C123.952 49.7748 124.144 50.3698 123.769 50.6431L121.029 52.6446C120.862 52.7668 120.791 52.9835 120.855 53.1813L121.902 56.4197C122.045 56.8619 121.541 57.2297 121.167 56.9563L118.426 54.9549C118.259 54.8327 118.032 54.8327 117.865 54.9549L115.123 56.9563C114.75 57.2297 114.246 56.8619 114.389 56.4197L115.436 53.1813C115.499 52.9835 115.429 52.7668 115.262 52.6446L112.522 50.6431C112.147 50.3698 112.339 49.7748 112.802 49.7748H116.19C116.397 49.7748 116.58 49.6409 116.644 49.4431L117.692 46.2047Z" fill="#FFBB31"></path>
  <path d="M128.854 45.2144V58.1314H127.831V45.2144H128.854ZM133.619 54.066V53.1072L136.995 47.7455H137.747V49.157H137.271L134.854 52.9998V53.0612H139.484V54.066H133.619ZM137.324 55.6001V53.7746L137.332 53.3373V47.7455H138.45V55.6001H137.324ZM141.287 55.673C141.079 55.673 140.899 55.5988 140.749 55.4506C140.599 55.2996 140.524 55.1182 140.524 54.9059C140.524 54.6963 140.599 54.5174 140.749 54.369C140.899 54.2182 141.079 54.1427 141.287 54.1427C141.496 54.1427 141.675 54.2182 141.825 54.369C141.976 54.5174 142.051 54.6963 142.051 54.9059C142.051 55.0466 142.015 55.1757 141.943 55.2933C141.875 55.4084 141.783 55.5004 141.669 55.5694C141.554 55.6385 141.427 55.673 141.287 55.673ZM146.067 47.6382C146.416 47.6408 146.76 47.7047 147.098 47.83C147.437 47.9553 147.742 48.1598 148.014 48.4436C148.288 48.7274 148.508 49.1109 148.67 49.5941C148.835 50.0748 148.92 50.6732 148.922 51.3891C148.922 52.0768 148.853 52.6892 148.716 53.2262C148.579 53.7605 148.382 54.2117 148.125 54.58C147.87 54.9482 147.561 55.2281 147.197 55.4199C146.834 55.6116 146.424 55.7075 145.968 55.7075C145.503 55.7075 145.09 55.6155 144.728 55.4314C144.367 55.2473 144.073 54.9929 143.847 54.6682C143.62 54.3408 143.479 53.965 143.423 53.5406H144.587C144.663 53.8781 144.819 54.1517 145.053 54.3614C145.289 54.5685 145.595 54.672 145.968 54.672C146.542 54.672 146.987 54.4215 147.308 53.9202C147.628 53.4166 147.79 52.7135 147.793 51.8109H147.732C147.599 52.0308 147.433 52.22 147.235 52.3785C147.039 52.537 146.82 52.6598 146.575 52.7468C146.331 52.8336 146.07 52.8771 145.793 52.8771C145.343 52.8771 144.933 52.7658 144.564 52.5435C144.195 52.321 143.902 52.0155 143.683 51.6268C143.463 51.2382 143.355 50.7946 143.355 50.296C143.355 49.7999 143.467 49.3499 143.69 48.946C143.917 48.5421 144.232 48.2224 144.637 47.9872C145.044 47.7494 145.521 47.6331 146.067 47.6382ZM146.071 48.6353C145.774 48.6353 145.505 48.7095 145.266 48.8578C145.03 49.0035 144.842 49.2017 144.705 49.4523C144.568 49.7003 144.5 49.9764 144.5 50.2806C144.5 50.585 144.565 50.8611 144.698 51.1091C144.833 51.3545 145.016 51.5501 145.247 51.6958C145.481 51.8391 145.749 51.9106 146.048 51.9106C146.273 51.9106 146.481 51.8672 146.674 51.7803C146.867 51.6933 147.037 51.5732 147.181 51.4197C147.327 51.2638 147.441 51.0873 147.522 50.8905C147.603 50.6936 147.644 50.4864 147.644 50.2691C147.644 49.9803 147.576 49.7117 147.438 49.4638C147.303 49.2158 147.117 49.0163 146.881 48.8655C146.644 48.712 146.374 48.6353 146.071 48.6353Z" fill="#1E1E1F"></path>
  <path d="M56.4169 38L61.179 28.5824V28.5025H55.6712V27.0909H62.8835V28.5504L58.1374 38H56.4169ZM68.2994 38.1811C67.4578 38.1776 66.7387 37.9556 66.1421 37.5153C65.5455 37.0749 65.0892 36.4339 64.7732 35.5923C64.4571 34.7507 64.2991 33.7369 64.2991 32.5508C64.2991 31.3683 64.4571 30.358 64.7732 29.5199C65.0928 28.6818 65.5509 28.0426 66.1475 27.6023C66.7476 27.1619 67.4649 26.9418 68.2994 26.9418C69.134 26.9418 69.8495 27.1637 70.4461 27.6076C71.0427 28.0479 71.499 28.6871 71.8151 29.5252C72.1347 30.3597 72.2945 31.3683 72.2945 32.5508C72.2945 33.7404 72.1365 34.756 71.8204 35.5977C71.5044 36.4357 71.048 37.0767 70.4514 37.5206C69.8548 37.9609 69.1375 38.1811 68.2994 38.1811ZM68.2994 36.7589C69.0381 36.7589 69.6151 36.3984 70.0306 35.6776C70.4497 34.9567 70.6592 33.9144 70.6592 32.5508C70.6592 31.6452 70.5633 30.88 70.3715 30.255C70.1833 29.6264 69.9117 29.1506 69.5566 28.8274C69.205 28.5007 68.786 28.3374 68.2994 28.3374C67.5644 28.3374 66.9873 28.6996 66.5683 29.424C66.1492 30.1484 65.9379 31.1907 65.9344 32.5508C65.9344 33.4599 66.0285 34.2287 66.2167 34.8572C66.4085 35.4822 66.6801 35.9563 67.0317 36.2795C67.3833 36.5991 67.8058 36.7589 68.2994 36.7589ZM78.303 38V27.0909H82.1915C83.0367 27.0909 83.738 27.2365 84.2955 27.5277C84.8566 27.8189 85.2757 28.2219 85.5526 28.7369C85.8296 29.2482 85.9681 29.8395 85.9681 30.5107C85.9681 31.1783 85.8279 31.766 85.5473 32.2738C85.2703 32.7781 84.8513 33.1705 84.2902 33.451C83.7327 33.7315 83.0313 33.8718 82.1862 33.8718H79.2405V32.4549H82.037C82.5697 32.4549 83.0029 32.3786 83.3367 32.2259C83.6741 32.0732 83.9209 31.8512 84.0771 31.56C84.2334 31.2688 84.3115 30.919 84.3115 30.5107C84.3115 30.0987 84.2316 29.7418 84.0718 29.44C83.9156 29.1381 83.6688 28.9073 83.3314 28.7475C82.9976 28.5842 82.559 28.5025 82.0157 28.5025H79.949V38H78.303ZM83.6883 33.0781L86.3836 38H84.5086L81.8666 33.0781H83.6883ZM91.2669 38.1651C90.4608 38.1651 89.7665 37.9929 89.1841 37.6484C88.6053 37.3004 88.1578 36.8121 87.8418 36.1836C87.5293 35.5515 87.373 34.8111 87.373 33.9624C87.373 33.1243 87.5293 32.3857 87.8418 31.7464C88.1578 31.1072 88.5982 30.6083 89.1628 30.2496C89.731 29.891 90.3951 29.7116 91.155 29.7116C91.6167 29.7116 92.0641 29.788 92.4973 29.9407C92.9306 30.0934 93.3194 30.3331 93.6639 30.6598C94.0083 30.9865 94.28 31.4109 94.4789 31.9329C94.6777 32.4513 94.7772 33.0817 94.7772 33.8239V34.3885H88.2733V33.1953H93.2164C93.2164 32.7763 93.1312 32.4052 92.9608 32.082C92.7903 31.7553 92.5506 31.4979 92.2417 31.3097C91.9363 31.1214 91.5776 31.0273 91.1657 31.0273C90.7182 31.0273 90.3276 31.1374 89.9938 31.3576C89.6635 31.5742 89.4078 31.8583 89.2267 32.2099C89.0492 32.5579 88.9604 32.9361 88.9604 33.3445V34.2766C88.9604 34.8235 89.0563 35.2887 89.248 35.6722C89.4434 36.0558 89.715 36.3487 90.063 36.5511C90.411 36.75 90.8176 36.8494 91.2828 36.8494C91.5847 36.8494 91.8599 36.8068 92.1085 36.7216C92.3571 36.6328 92.5719 36.5014 92.753 36.3274C92.9341 36.1534 93.0726 35.9386 93.1685 35.6829L94.676 35.9545C94.5552 36.3984 94.3386 36.7873 94.0261 37.1211C93.7172 37.4513 93.3283 37.7088 92.8596 37.8935C92.3944 38.0746 91.8635 38.1651 91.2669 38.1651ZM103.309 29.8182L100.342 38H98.6377L95.6654 29.8182H97.3753L99.4474 36.1143H99.5326L101.599 29.8182H103.309ZM104.806 38V29.8182H106.399V38H104.806ZM105.61 28.5558C105.333 28.5558 105.095 28.4634 104.897 28.2788C104.701 28.0906 104.604 27.8668 104.604 27.6076C104.604 27.3448 104.701 27.1211 104.897 26.9364C105.095 26.7482 105.333 26.6541 105.61 26.6541C105.887 26.6541 106.123 26.7482 106.319 26.9364C106.518 27.1211 106.617 27.3448 106.617 27.6076C106.617 27.8668 106.518 28.0906 106.319 28.2788C106.123 28.4634 105.887 28.5558 105.61 28.5558ZM112.068 38.1651C111.262 38.1651 110.567 37.9929 109.985 37.6484C109.406 37.3004 108.959 36.8121 108.643 36.1836C108.33 35.5515 108.174 34.8111 108.174 33.9624C108.174 33.1243 108.33 32.3857 108.643 31.7464C108.959 31.1072 109.399 30.6083 109.964 30.2496C110.532 29.891 111.196 29.7116 111.956 29.7116C112.417 29.7116 112.865 29.788 113.298 29.9407C113.731 30.0934 114.12 30.3331 114.465 30.6598C114.809 30.9865 115.081 31.4109 115.28 31.9329C115.479 32.4513 115.578 33.0817 115.578 33.8239V34.3885H109.074V33.1953H114.017C114.017 32.7763 113.932 32.4052 113.762 32.082C113.591 31.7553 113.351 31.4979 113.042 31.3097C112.737 31.1214 112.378 31.0273 111.966 31.0273C111.519 31.0273 111.128 31.1374 110.795 31.3576C110.464 31.5742 110.209 31.8583 110.028 32.2099C109.85 32.5579 109.761 32.9361 109.761 33.3445V34.2766C109.761 34.8235 109.857 35.2887 110.049 35.6722C110.244 36.0558 110.516 36.3487 110.864 36.5511C111.212 36.75 111.618 36.8494 112.084 36.8494C112.385 36.8494 112.661 36.8068 112.909 36.7216C113.158 36.6328 113.373 36.5014 113.554 36.3274C113.735 36.1534 113.873 35.9386 113.969 35.6829L115.477 35.9545C115.356 36.3984 115.139 36.7873 114.827 37.1211C114.518 37.4513 114.129 37.7088 113.66 37.8935C113.195 38.0746 112.664 38.1651 112.068 38.1651ZM119.104 38L116.697 29.8182H118.343L119.946 35.8267H120.026L121.634 29.8182H123.28L124.878 35.8001H124.958L126.551 29.8182H128.197L125.795 38H124.17L122.508 32.0927H122.385L120.724 38H119.104ZM135.839 31.8157L134.396 32.0714C134.335 31.8867 134.24 31.7109 134.108 31.544C133.98 31.3771 133.806 31.2404 133.586 31.1339C133.366 31.0273 133.091 30.9741 132.761 30.9741C132.31 30.9741 131.933 31.0753 131.631 31.2777C131.329 31.4766 131.179 31.734 131.179 32.0501C131.179 32.3235 131.28 32.5437 131.482 32.7106C131.685 32.8775 132.011 33.0142 132.462 33.1207L133.762 33.419C134.515 33.593 135.076 33.8612 135.445 34.2234C135.815 34.5856 135.999 35.0561 135.999 35.6349C135.999 36.125 135.857 36.5618 135.573 36.9453C135.293 37.3253 134.9 37.6236 134.396 37.8402C133.895 38.0568 133.315 38.1651 132.654 38.1651C131.738 38.1651 130.99 37.9698 130.411 37.5792C129.833 37.185 129.478 36.6257 129.346 35.9013L130.886 35.6669C130.981 36.0682 131.179 36.3718 131.477 36.5778C131.775 36.7802 132.164 36.8814 132.643 36.8814C133.165 36.8814 133.583 36.7731 133.895 36.5565C134.208 36.3363 134.364 36.0682 134.364 35.7521C134.364 35.4964 134.268 35.2816 134.076 35.1076C133.888 34.9336 133.599 34.8022 133.208 34.7134L131.823 34.4098C131.06 34.2358 130.495 33.9588 130.129 33.5788C129.767 33.1989 129.586 32.7177 129.586 32.1353C129.586 31.6523 129.721 31.2298 129.991 30.8675C130.261 30.5053 130.633 30.223 131.109 30.0206C131.585 29.8146 132.13 29.7116 132.745 29.7116C133.629 29.7116 134.325 29.9034 134.833 30.2869C135.34 30.6669 135.676 31.1765 135.839 31.8157Z" fill="#1E1E1F"></path>
</svg>
